<svg id="Flat" height="512" viewBox="0 0 512 512" width="512" xmlns="http://www.w3.org/2000/svg"><circle cx="256" cy="256" fill="#ffd754" r="232"/><circle cx="256" cy="256" fill="#edb90c" r="184"/><path d="m152 264a8 8 0 0 0 0 16h32v56a8 8 0 0 0 16 0v-56h64.955l48.8 61a8 8 0 0 0 14.245-5v-56h32a8 8 0 0 0 0-16h-32v-16h32a8 8 0 0 0 0-16h-32v-56a8 8 0 0 0 -16 0v56h-64.955l-48.8-61a8 8 0 0 0 -14.245 5v56h-32a8 8 0 0 0 0 16h32v16zm160 49.194-26.555-33.194h26.555zm0-65.194v16h-39.355l-12.8-16zm-112-49.194 26.555 33.194h-26.555zm0 49.194h39.355l12.8 16h-52.155z" fill="#fbe36a"/><g fill="#fbefb2"><path d="m74.782 232a8 8 0 0 1 -7.889-9.383 192.259 192.259 0 0 1 155.725-155.724 8 8 0 1 1 2.764 15.76 176.212 176.212 0 0 0 -142.729 142.729 8 8 0 0 1 -7.871 6.618z"/><path d="m287.99 445.229a8 8 0 0 1 -1.372-15.882 176.214 176.214 0 0 0 142.73-142.729 8 8 0 1 1 15.759 2.764 192.259 192.259 0 0 1 -155.725 155.725 8.051 8.051 0 0 1 -1.392.122z"/><circle cx="72" cy="256" r="8"/><circle cx="256" cy="72" r="8"/><circle cx="440" cy="256" r="8"/><circle cx="256" cy="440" r="8"/></g></svg>